<?xml version="1.0" encoding="UTF-8"?>
<svg id="Layer_1" data-name="Layer 1" xmlns="http://www.w3.org/2000/svg" viewBox="0 0 466.05 150.7">
  <defs>
    <style>
      .cls-1 {
        fill: #fff;
      }
    </style>
  </defs>
  <path class="cls-1" d="M75.01,127.76c-28.95,0-52.51-23.55-52.51-52.51,0-2.58,2.09-4.67,4.67-4.67s4.67,2.09,4.67,4.67c0,23.81,19.37,43.17,43.17,43.17s43.17-19.37,43.17-43.17-19.37-43.17-43.17-43.17c-2.58,0-4.67-2.09-4.67-4.67s2.09-4.67,4.67-4.67c28.95,0,52.51,23.55,52.51,52.51s-23.55,52.51-52.51,52.51Z"/>
  <path class="cls-1" d="M86.38,101.99c-1.04-1.77-.44-4.05,1.33-5.08h0c1.79-1.03,4.05-.43,5.1,1.34h0c1.03,1.77.43,4.05-1.34,5.08h0c-.59.35-1.24.51-1.88.51h0c-1.28,0-2.53-.67-3.21-1.85Z"/>
  <path class="cls-1" d="M98.32,92.7c-1.79-1.02-2.4-3.28-1.37-5.07h0c1.02-1.79,3.3-2.4,5.07-1.37h0c1.79,1.02,2.4,3.3,1.38,5.07h0c-.69,1.2-1.94,1.86-3.23,1.86h0c-.63,0-1.27-.16-1.85-.5Z"/>
  <path class="cls-1" d="M100.3,74.99c-.01-2.06,1.65-3.73,3.71-3.73h0c2.05,0,3.71,1.65,3.71,3.7h0c.01,2.06-1.66,3.73-3.7,3.73h0c-2.06.01-3.73-1.66-3.73-3.7Z"/>
  <path class="cls-1" d="M75.01,107.7c-18.04,0-32.72-14.68-32.72-32.72s14.68-32.72,32.72-32.72c11.6,0,22.44,6.24,28.29,16.27,1.03,1.77.43,4.05-1.34,5.08-1.78,1.03-4.05.43-5.08-1.34-4.52-7.76-12.9-12.58-21.86-12.58-13.94,0-25.28,11.34-25.28,25.28s11.34,25.28,25.28,25.28c2.05,0,3.72,1.67,3.72,3.72s-1.67,3.72-3.72,3.72Z"/>
  <path class="cls-1" d="M28.97,61.38c-2.38-.98-3.52-3.7-2.54-6.09h0c.98-2.38,3.71-3.52,6.09-2.54h0c2.39.98,3.53,3.71,2.55,6.09h0c-.74,1.81-2.48,2.9-4.32,2.9h0c-.59,0-1.19-.12-1.78-.36Z"/>
  <path class="cls-1" d="M37.79,44.84c-1.83-1.82-1.84-4.77-.02-6.6h0c1.82-1.83,4.77-1.84,6.6-.02h0c1.83,1.81,1.84,4.77.02,6.6h0c-.91.92-2.11,1.38-3.31,1.38h0c-1.19,0-2.38-.46-3.29-1.36Z"/>
  <path class="cls-1" d="M52.24,32.91c-.99-2.38.13-5.12,2.51-6.11h0c2.38-1,5.11.12,6.11,2.5h0c.99,2.38-.13,5.11-2.51,6.11h0c-.59.24-1.2.36-1.8.36h0c-1.82,0-3.55-1.07-4.31-2.86Z"/>
  <g>
    <path class="cls-1" d="M200.77,62.91v42.79h-11.05v-42.79h11.05ZM195.22,58.82c-3.24,0-5.9-2.61-5.9-5.9s2.66-5.9,5.9-5.9,5.9,2.61,5.9,5.9-2.66,5.9-5.9,5.9"/>
    <path class="cls-1" d="M235.84,105.69v-25.85c0-4.68-.5-9.69-6.23-9.69-3.16,0-7.31,1.36-10.14,2.97v32.57h-11.05v-42.78h11.05v4.25c3.83-2.81,9.89-5.61,14.62-5.61,8.89,0,12.79,6.63,12.79,15.06v29.08h-11.05Z"/>
    <path class="cls-1" d="M350.72,70.75c-3.25.32-6.74,2.13-9.57,3.74v31.2h-11.05v-42.78h11.05v5.09c3.82-2.81,9.89-5.09,14.62-5.09v8.03s-2.76-.43-5.06-.2"/>
    <path class="cls-1" d="M302.96,69.2c-8.06,0-10.72,7.83-10.72,14.8s2.41,15.65,10.72,15.65,10.8-8.59,10.8-15.65-2.74-14.8-10.8-14.8M302.96,106.79c-14.13,0-21.69-8.76-21.69-22.96s7.56-22.28,21.69-22.28,21.69,8.33,21.69,22.28-7.48,22.96-21.69,22.96"/>
    <path class="cls-1" d="M413.15,105.69v-25.85c0-4.76-1-9.69-6.65-9.69-2.91,0-6.15,1.36-8.64,2.97.25,1.11.33,2.3.33,3.49v29.08h-11.05v-25.85c0-4.68-.58-9.69-6.31-9.69-2.83,0-6.32,1.36-8.65,2.97v32.57h-11.05v-42.78h11.05v4.25c3.49-2.81,9.23-5.61,13.63-5.61,4.74,0,8.48,1.95,10.64,6.38,3.99-2.72,10.14-6.38,14.96-6.38,8.97,0,12.8,6.63,12.8,15.06v29.08h-11.05Z"/>
    <path class="cls-1" d="M440.38,93.1c0,3.83,2.41,6.55,6.15,6.55,4.65,0,8.81-3.99,8.81-8.84v-6.12c-4.9.26-14.96,2.04-14.96,8.42M456.08,99.4c-2.99,4.17-8.56,7.4-13.63,7.4-6.9,0-12.8-4.68-12.8-12.08,0-13.95,15.12-15.56,25.68-15.99v-2.55c0-4.85-3.91-7.31-8.39-7.31-4.16,0-8.64.59-12.63,1.96v-4.76c4.49-2.81,9.56-4.51,14.87-4.51,8.31,0,16.86,3.65,16.86,13.44v30.7h-9.97v-6.29Z"/>
    <path class="cls-1" d="M275.61,53.81c1.39,0,2.84.14,4.24.34v-4.9c-2.75-1.43-5.79-2.33-8.89-2.33-9.81,0-13.87,6.8-13.87,15.99h-5.1v7.45h5.1l.08,35.33h11.13v-35.33h11.55v-7.45h-11.63c0-5.44,1.25-9.1,7.4-9.1"/>
  </g>
  <path class="cls-1" d="M138.32,54.83c-1.07-3.05.53-6.4,3.58-7.48h0c3.05-1.07,6.4.53,7.48,3.58h0c1.08,3.05-.52,6.4-3.58,7.48h0c-.64.23-1.3.34-1.95.34h0c-2.41,0-4.68-1.51-5.53-3.92Z"/>
  <path class="cls-1" d="M128.69,37.16c-2.01-2.54-1.58-6.23.98-8.24h0c2.54-2.01,6.23-1.58,8.24.96h0c1.99,2.54,1.56,6.23-.98,8.24h0c-1.07.85-2.36,1.26-3.62,1.26h0c-1.73,0-3.45-.77-4.61-2.23Z"/>
  <path class="cls-1" d="M113.75,23.37h0c-2.69-1.8-3.4-5.45-1.6-8.13h0c1.81-2.69,5.45-3.41,8.15-1.6h0c2.69,1.8,3.4,5.45,1.6,8.13h0c-1.13,1.69-3,2.59-4.89,2.59h0c-1.12,0-2.26-.31-3.26-.99Z"/>
  <path class="cls-1" d="M95.3,14.68c-3.1-.93-4.86-4.2-3.94-7.3h0c.94-3.1,4.2-4.86,7.31-3.94h-.01c3.11.93,4.87,4.2,3.95,7.3h0c-.77,2.54-3.1,4.18-5.62,4.18h0c-.56,0-1.13-.08-1.69-.25Z"/>
  <path class="cls-1" d="M75.01,12.31c-1.54,0-3.05-.62-4.14-1.72-1.08-1.09-1.71-2.61-1.71-4.14,0-.39.04-.77.12-1.15.06-.38.18-.74.33-1.09.14-.37.33-.7.55-1.02.21-.33.46-.62.72-.9,1.37-1.35,3.4-1.98,5.29-1.6.38.08.74.2,1.11.34.35.14.69.33,1,.53.33.22.63.47.9.73.27.27.51.57.73.9.21.31.39.65.53,1.02.14.35.26.72.34,1.09.08.38.12.76.12,1.15,0,1.54-.62,3.05-1.72,4.14-.27.27-.57.51-.9.73-.31.21-.65.39-1,.53-.37.14-.73.26-1.11.34-.38.08-.76.12-1.15.12Z"/>
  <path class="cls-1" d="M75.01,149.98h-.11c-43.6-.8-68.19-31.98-73.23-62.52C-3.38,56.82,9.8,19.33,50.63,4.65c3.05-1.1,6.41.49,7.5,3.53,1.1,3.05-.49,6.41-3.53,7.5C20.12,28.08,8.99,59.71,13.25,85.55c2.34,14.17,9.17,27.12,19.23,36.44,11.14,10.32,25.87,15.94,42.59,16.26,34.7-.03,62.92-28.27,62.92-62.97,0-3.24,2.63-5.86,5.86-5.86s5.86,2.63,5.86,5.86c0,41.19-33.51,74.7-74.7,74.7Z"/>
</svg>